<svg width="67" height="16" viewBox="0 0 67 16" fill="none" xmlns="http://www.w3.org/2000/svg">
<path fill-rule="evenodd" clip-rule="evenodd" d="M11.96 14.8435H15.6573L9.53567 1.0647H5.55558L0 14.8435H3.63642L4.66692 12.1154H10.8289L11.96 14.8435ZM5.576 9.71086L7.59625 4.3572L9.81875 9.71086H5.576Z" fill="white"/>
<path d="M29.088 1.0647H32.078V14.8435H28.6431V6.23686L24.9258 10.5599H24.4007L20.6836 6.23686V14.8434H17.2487V1.0647H20.2387L24.663 6.17603L29.088 1.0647Z" fill="white"/>
<path fill-rule="evenodd" clip-rule="evenodd" d="M48.3972 7.97378C48.3972 4.19578 45.8116 1.0647 40.7813 1.0647H34.6998V14.8435H40.3972C45.8923 14.8435 48.3972 11.9335 48.3972 7.97378ZM40.3766 12.3181H38.1344H38.1343V3.58978H40.3362C43.5888 3.58978 44.8618 5.58936 44.8618 7.95336C44.8618 9.97403 43.8313 12.3181 40.3766 12.3181Z" fill="white"/>
<path d="M55.2307 4.33175L50.8997 0H66.6667V15.7675L62.3357 11.4362V4.33175H55.2307Z" fill="white"/>
<path d="M55.2257 5.19971L50.7667 9.65854V15.9001H57.0074L61.4662 11.4413H55.2257V5.19971Z" fill="white"/>
</svg>
