<svg width="64" height="16" viewBox="0 0 64 16" fill="none" xmlns="http://www.w3.org/2000/svg">
<path fill-rule="evenodd" clip-rule="evenodd" d="M35.4718 4.7992L31.411 16H25.1015L28.7558 5.92026C29.9738 2.55991 25.5024 3.78852 24.5031 4.56003C23.7181 5.16698 22.2876 6.54812 21.7615 7.9985L18.8608 16H18.8605H12.5508L16.2051 5.92043C17.423 2.56007 12.9519 3.78868 11.9523 4.5602C11.1671 5.16714 9.73595 6.54878 9.21014 8.00017L6.30979 16H0L5.80053 0C7.80997 0 8.89672 0.462611 9.80971 1.3604C10.1432 1.68838 10.3519 2.11419 10.4661 2.5681C11.6497 1.85144 12.696 1.31508 13.4004 1.04045C14.7121 0.527169 16.3418 -0.000500476 18.3514 0C20.3598 0 21.4469 0.462611 22.3602 1.3604C22.6937 1.68838 22.9024 2.11419 23.0168 2.5681C24.2006 1.85144 25.2465 1.31508 25.9511 1.04045C27.262 0.527001 28.8929 -0.000667724 30.9019 0C32.9108 0 33.9979 0.462611 34.9109 1.3604C35.823 2.25485 35.8018 3.89104 35.4718 4.7992ZM58.1988 16L62.5791 3.92014C62.5791 3.92014 59.3051 3.92014 56.0308 4.57709L51.89 16H58.1988ZM57.4521 0.657121L56.6113 2.97753C59.9055 2.31957 63.1593 2.31957 63.1593 2.31957L64 0C64.0002 0 60.7265 0 57.4521 0.657121ZM33.8119 15.342C36.0364 15.7729 38.3344 16 40.6857 16H40.6863C44.418 16 45.9515 15.6289 47.8877 14.6401C49.5369 13.7967 50.6211 12.9019 51.0869 11.3605C51.4861 10.0396 50.9759 8.79293 49.7921 8.00017C49.0905 7.53021 48.4018 7.20707 47.6737 6.86542L47.6736 6.8654C47.173 6.63048 46.6537 6.38682 46.0987 6.08066C44.9074 5.4237 44.2577 4.92882 44.3371 4.24025C44.5047 2.79506 46.0497 2.31957 48.1782 2.31957C50.252 2.31957 52.2822 2.50739 54.2518 2.86647L55.0528 0.657288C52.8279 0.226958 50.529 0.000168518 48.1782 0.000168518C44.4465 0.000168518 42.9135 0.37146 40.9775 1.3599C39.3276 2.20333 38.2434 3.09811 37.7776 4.64048C37.3784 5.96107 37.8887 7.20707 39.0734 8.00017C39.7745 8.46997 40.4628 8.79316 41.191 9.13508C41.6916 9.37014 42.2111 9.61404 42.7665 9.92052C43.9571 10.5771 44.6075 11.0714 44.5268 11.7602C44.3592 13.2058 42.8142 13.6794 40.6863 13.6794H40.6857C38.6125 13.6794 36.5823 13.4923 34.6124 13.1325L33.8119 15.342Z" fill="#333333"/>
</svg>
