<svg width="126" height="16" viewBox="0 0 126 16" fill="none" xmlns="http://www.w3.org/2000/svg">
<path fill-rule="evenodd" clip-rule="evenodd" d="M22.7448 0H18.5046V15.8464H22.7448V0ZM119.126 0.0511883H121.403V0.425503H120.479V3.02011H120.052V0.425503H119.126V0.0511883ZM123.473 2.51383L124.39 0.0511883H125.092V3.02011H124.666V0.451897H124.659L123.675 3.02011H123.252L122.27 0.451897H122.261V3.02011H121.832V0.0511883H122.537L123.473 2.51383ZM47.8015 0.013197H53.0027L59.1389 15.9368H54.486L53.2987 12.5395H47.322L46.0655 15.9368H41.7541L47.8015 0.013197ZM50.3569 3.29805H50.4013L52.2945 9.52703H48.3022L50.3569 3.29805ZM61.2037 0.0111974H68.5288C71.4929 0.0111974 73.7072 1.3105 73.7072 4.04788C73.7072 6.05862 72.681 7.17756 70.9018 7.76863V7.81302C73.0202 8.24932 74.1179 9.38866 74.1179 11.3302C74.1179 15.1398 70.7639 15.9364 67.9129 15.9364H61.2037V0.0111974ZM66.704 12.9291H65.4459H65.4455V9.18631H66.75C68.2085 9.18631 69.8737 9.34347 69.8737 11.0799C69.8737 12.6983 68.2544 12.9291 66.704 12.9291ZM65.4459 6.31016H66.6336C68.0261 6.31016 69.4618 5.96784 69.4618 4.62055C69.4618 3.15968 68.0953 3.02611 66.6812 3.02611H65.4459V6.31016ZM73.9783 0.0111974L79.8626 9.93854V15.9368H84.1064V9.93854L89.9503 0.0111974H85.0658L81.9861 6.40014L78.8592 0.0111974H73.9783ZM95.6186 3.15968H91.6967V0.0111974H103.788V3.15968H99.866V15.9368H95.6186V3.15968ZM117.033 0.0111974H105.808V15.9368H117.282V12.9291H110.05V9.32108H116.643V6.31016H110.05V3.02611H117.033V0.0111974ZM8.86838 3.498C6.04542 3.73275 4.50417 5.58593 4.50417 7.98418C4.50417 10.316 6.66488 12.276 8.75161 12.276L9.2099 12.2712H9.98133C9.98133 12.2712 10.4928 12.2712 10.4964 11.7725V6.76766H14.8538C14.8538 9.59261 14.8434 15.9368 14.8434 15.9368C14.8434 15.9368 10.5428 15.9332 8.04577 15.9332C3.35004 15.9332 0 12.0541 0 7.98418C0 3.58198 3.64397 -0.0947784 8.18134 0.0679845L14.6995 0.0883799L14.6963 3.4976H8.86838V3.498ZM29.7212 7.98418C29.7212 5.58553 31.2597 3.73235 34.0838 3.498H39.9049L39.9065 0.0887798L33.3992 0.0683844C28.8598 -0.0947784 25.2195 3.58198 25.2195 7.98418C25.2195 12.0541 28.5659 15.9332 33.2592 15.9332C35.7547 15.9332 40.0517 15.9368 40.0517 15.9368C40.0517 15.9368 40.0589 9.59261 40.0589 6.76766H35.7087V11.7725C35.7051 12.2712 35.1972 12.2712 35.1972 12.2712H34.4238L33.9671 12.276C31.8787 12.276 29.7212 10.316 29.7212 7.98418Z" fill="#333333"/>
</svg>
