<svg width="126" height="16" viewBox="0 0 126 16" fill="none" xmlns="http://www.w3.org/2000/svg">
<path fill-rule="evenodd" clip-rule="evenodd" d="M0 7.85284V0L7.13043 0.0535117C13.4716 0.107023 14.3278 0.147157 14.9833 0.347826C16.7625 0.923077 17.3913 1.79264 17.4983 3.81271C17.5786 5.48495 17.3378 6.36789 16.5753 7.05017C16.2809 7.31773 16.0535 7.55853 16.0803 7.57191C16.0857 7.57736 16.1312 7.60507 16.2013 7.64776L16.2015 7.64782C16.3033 7.70982 16.457 7.8034 16.6154 7.90635C17.4582 8.41472 17.6589 9.0301 17.6589 11.2107C17.6589 12.9498 17.6321 13.1371 17.3244 13.7659C16.9498 14.5017 16.3746 14.9833 15.3846 15.3712C14.8361 15.5853 14.087 15.612 7.39799 15.6522L0 15.6923V7.85284ZM13.8462 13.0836C14.087 12.9766 14.3545 12.7759 14.4348 12.6288C14.515 12.4682 14.5819 11.7324 14.5819 10.9565C14.5819 9.64548 14.5686 9.55184 14.2341 9.24415L13.8863 8.92308L8.48161 8.88294L3.07692 8.84281V11.0635V13.2709H8.22742C12.3746 13.2709 13.4716 13.2308 13.8462 13.0836ZM14.4482 4.40134C14.4482 5.77926 14.301 6.10033 13.5385 6.31438C13.2441 6.39465 11.0769 6.44816 8.06689 6.44816H3.07692V4.50836V2.56856H8.42809H13.7926L14.1137 2.90301C14.4214 3.19732 14.4482 3.3311 14.4482 4.40134Z" fill="#333333"/>
<path d="M21.0033 7.85294V0.0268555H22.4749H23.9465V7.85294V15.679H22.4749H21.0033V7.85294Z" fill="#333333"/>
<path d="M34.5151 9.12385V2.56866H30.5017H26.4883V1.29776V0.0268555H35.9866H45.485V1.29776V2.56866H41.5385H37.592V9.12385V15.679H36.0535H34.5151V9.12385Z" fill="#333333"/>
<path d="M47.9197 7.89303L47.9599 0.0936953L49.311 0.0535615L50.6756 0.0134277L55.2508 6.31443C57.7659 9.76594 59.8662 12.6021 59.9064 12.5887C59.9599 12.5887 62.0334 9.76594 64.5217 6.30105L69.0569 0.0268057H70.3144H71.5719V7.85289V15.679H70.1672H68.7625L68.7358 10.3947L68.6957 5.11042L64.8829 10.3813L61.0702 15.6656H59.786L58.5017 15.679L54.6354 10.3813L50.7692 5.07028L50.7291 10.3813L50.7023 15.679H49.2977H47.893L47.9197 7.89303Z" fill="#333333"/>
<path d="M73.6722 15.2911C73.806 15.077 76.1472 11.5586 78.8629 7.46498L83.8127 0.0402334L84.8294 0.0268555C85.6321 0.0268555 85.8863 0.0803672 86.0468 0.267658C86.2876 0.535217 96.1873 15.5319 96.1873 15.6255C96.1873 15.6523 95.4247 15.679 94.4883 15.6657H92.7759L88.8829 9.55194C86.7425 6.19408 84.9365 3.43823 84.8829 3.43823C84.8428 3.43823 83.01 6.19408 80.8294 9.55194L76.8562 15.6657L75.1438 15.679H73.4181L73.6722 15.2911Z" fill="#333333"/>
<path d="M98.194 7.85294V0.0268555H99.7324H101.271V7.85294V15.679H99.7324H98.194V7.85294Z" fill="#333333"/>
<path d="M104.642 7.89303L104.682 0.0936953L105.9 0.0535615L107.13 0.0134277L112.99 4.38801C116.227 6.79604 119.652 9.3646 120.629 10.087C121.592 10.8094 122.421 11.398 122.462 11.398C122.502 11.398 122.555 8.85624 122.569 5.75256L122.609 0.0936953L123.92 0.0535615L125.217 0.0134277V7.85289V15.679H124.455H123.679L115.518 9.71242L107.358 3.75925L107.318 9.71242L107.291 15.679H105.953H104.615L104.642 7.89303Z" fill="#333333"/>
</svg>
