<svg width="16" height="16" viewBox="0 0 16 16" fill="none" xmlns="http://www.w3.org/2000/svg">
<path fill-rule="evenodd" clip-rule="evenodd" d="M5.23684 1C2.90341 1 1 2.90341 1 5.23684V10.7632C1 13.0963 2.90334 15 5.23684 15H10.7632C13.0963 15 15 13.0963 15 10.7632V5.23684C15 2.90334 13.0963 1 10.7632 1H5.23684ZM5.23684 2.10526H10.7632C12.4989 2.10526 13.8947 3.50077 13.8947 5.23684V10.7632C13.8947 12.4988 12.4988 13.8947 10.7632 13.8947H5.23684C3.50077 13.8947 2.10526 12.4989 2.10526 10.7632V5.23684C2.10526 3.5007 3.5007 2.10526 5.23684 2.10526ZM11.6842 3.57895C11.2771 3.57895 10.9474 3.90868 10.9474 4.31579C10.9474 4.72289 11.2771 5.05263 11.6842 5.05263C12.0913 5.05263 12.4211 4.72289 12.4211 4.31579C12.4211 3.90868 12.0913 3.57895 11.6842 3.57895ZM8 4.31579C5.97191 4.31579 4.31579 5.97191 4.31579 8C4.31579 10.0281 5.97191 11.6842 8 11.6842C10.0281 11.6842 11.6842 10.0281 11.6842 8C11.6842 5.97191 10.0281 4.31579 8 4.31579ZM8 5.42105C9.43064 5.42105 10.5789 6.56936 10.5789 8C10.5789 9.43064 9.43064 10.5789 8 10.5789C6.56936 10.5789 5.42105 9.43064 5.42105 8C5.42105 6.56936 6.56936 5.42105 8 5.42105Z" fill="#0F8BFD"/>
</svg>
