<svg width="131" height="33" viewBox="0 0 131 33" fill="none" xmlns="http://www.w3.org/2000/svg">
<path fill-rule="evenodd" clip-rule="evenodd" d="M72.2069 9.85744L63.9617 32.5992H51.1508L58.5706 12.1336C61.0437 5.31085 51.9648 7.80538 49.9358 9.37185C48.3418 10.6042 45.4374 13.4084 44.3691 16.3532L38.4795 32.5992H38.4788H25.6676L33.0874 12.134C35.5602 5.31119 26.4819 7.80572 24.4523 9.37219C22.8579 10.6045 19.9522 13.4098 18.8846 16.3566L12.9956 32.5992H0.184052L11.9616 0.113284C16.0416 0.113284 18.2482 1.05255 20.1019 2.8754C20.779 3.54131 21.2028 4.40588 21.4348 5.32749C23.838 3.8724 25.9624 2.78338 27.3926 2.22579C30.056 1.18363 33.3648 0.112265 37.4451 0.113284C41.5231 0.113284 43.7304 1.05255 45.5848 2.8754C46.2619 3.54131 46.6857 4.40588 46.918 5.32749C49.3215 3.8724 51.4452 2.78338 52.8759 2.22579C55.5375 1.18329 58.849 0.111926 62.928 0.113284C67.007 0.113284 69.2143 1.05255 71.068 2.8754C72.9201 4.69146 72.8769 8.01354 72.2069 9.85744ZM118.352 32.5992L127.246 8.07263C127.246 8.07263 120.599 8.07263 113.95 9.40648L105.543 32.5992H118.352ZM116.836 1.44748L115.129 6.15877C121.818 4.82288 128.424 4.82288 128.424 4.82288L130.131 0.113284C130.132 0.113284 123.485 0.113284 116.836 1.44748ZM68.8366 31.2633C73.3534 32.1381 78.0191 32.5992 82.7933 32.5992H82.7946C90.3716 32.5992 93.4852 31.8457 97.4165 29.8381C100.765 28.1257 102.966 26.3089 103.912 23.1794C104.723 20.4974 103.687 17.9662 101.283 16.3566C99.8586 15.4024 98.4602 14.7463 96.9818 14.0526C95.9653 13.5756 94.9109 13.0809 93.784 12.4593C91.3652 11.1254 90.0459 10.1206 90.2072 8.72258C90.5475 5.78829 93.6845 4.82288 98.0063 4.82288C102.217 4.82288 106.339 5.20422 110.338 5.93329L111.965 1.44782C107.447 0.57409 102.779 0.113623 98.0063 0.113623C90.4293 0.113623 87.3168 0.867484 83.3858 2.87438C80.0359 4.58687 77.8344 6.40361 76.8887 9.53518C76.0781 12.2165 77.1142 14.7463 79.5197 16.3566C80.9433 17.3105 82.3409 17.9667 83.8194 18.6609L83.8196 18.661C84.8359 19.1382 85.8906 19.6334 87.0183 20.2556C89.4357 21.5888 90.7563 22.5923 90.5923 23.991C90.2521 26.9259 87.1151 27.8876 82.7946 27.8876H82.7933C78.5839 27.8876 74.4617 27.5076 70.4619 26.7772L68.8366 31.2633Z" fill="#333333"/>
</svg>
