<svg width="180" height="23" viewBox="0 0 180 23" fill="none" xmlns="http://www.w3.org/2000/svg">
<path fill-rule="evenodd" clip-rule="evenodd" d="M32.6957 0H26.6003V22.7792H32.6957V0ZM171.244 0.0735832H174.516V0.611661H173.188V4.34141H172.575V0.611661H171.244V0.0735832ZM177.493 3.61363L178.811 0.0735832H179.82V4.34141H179.207V0.649602H179.197L177.782 4.34141H177.175L175.763 0.649602H175.75V4.34141H175.134V0.0735832H176.147L177.493 3.61363ZM68.7147 0.0189707H76.1914L85.0122 22.9091H78.3236L76.6168 18.0256H68.0254L66.2192 22.9091H60.0215L68.7147 0.0189707ZM72.3881 4.74094H72.4519L75.1733 13.6951H69.4344L72.3881 4.74094ZM87.9803 0.0160963H98.5101C102.771 0.0160963 105.954 1.88385 105.954 5.81882C105.954 8.70927 104.479 10.3177 101.921 11.1674V11.2312C104.966 11.8584 106.545 13.4962 106.545 16.2872C106.545 21.7634 101.723 22.9085 97.6248 22.9085H87.9803V0.0160963ZM95.887 18.5855H94.0785H94.0779V13.2053H95.9531C98.0497 13.2053 100.443 13.4312 100.443 15.9273C100.443 18.2538 98.1158 18.5855 95.887 18.5855ZM94.0785 9.07086H95.7858C97.7875 9.07086 99.8513 8.57877 99.8513 6.64204C99.8513 4.54204 97.887 4.35003 95.8542 4.35003H94.0785V9.07086ZM106.344 0.0160963L114.802 14.2866V22.9091H120.903V14.2866L129.304 0.0160963H122.282L117.855 9.2002L113.36 0.0160963H106.344ZM137.452 4.54204H131.814V0.0160963H149.195V4.54204H143.557V22.9091H137.452V4.54204ZM168.235 0.0160963H152.099V22.9091H168.594V18.5855H158.196V13.399H167.675V9.07086H158.196V4.35003H168.235V0.0160963ZM12.7483 5.02838C8.6903 5.36583 6.47475 8.02977 6.47475 11.4773C6.47475 14.8293 9.58077 17.6468 12.5804 17.6468L13.2392 17.6399H14.3482C14.3482 17.6399 15.0834 17.6399 15.0886 16.923V9.72851H21.3524C21.3524 13.7894 21.3374 22.9091 21.3374 22.9091C21.3374 22.9091 15.1553 22.9039 11.5658 22.9039C4.81568 22.9039 0 17.3277 0 11.4773C0 5.1491 5.23821 -0.136244 11.7607 0.0977277L21.1305 0.127046L21.1259 5.0278H12.7483V5.02838ZM42.7243 11.4773C42.7243 8.0292 44.9358 5.36525 48.9955 5.02838H57.3633L57.3656 0.127621L48.0113 0.0983026C41.486 -0.136244 36.253 5.1491 36.253 11.4773C36.253 17.3277 41.0635 22.9039 47.8101 22.9039C51.3973 22.9039 57.5743 22.9091 57.5743 22.9091C57.5743 22.9091 57.5846 13.7894 57.5846 9.72851H51.3312V16.923C51.326 17.6399 50.5959 17.6399 50.5959 17.6399H49.4841L48.8276 17.6468C45.8257 17.6468 42.7243 14.8293 42.7243 11.4773Z" fill="#333333"/>
</svg>
