<svg width="180" height="22" viewBox="0 0 180 22" fill="none" xmlns="http://www.w3.org/2000/svg">
<path fill-rule="evenodd" clip-rule="evenodd" d="M4.07532 0.202797C-0.987838 0.593889 -0.743392 8.23785 1.62199 11.2001C4.59692 12.5702 7.83848 12.4242 11.0921 12.2776C13.9429 12.1491 16.803 12.0203 19.501 12.9106C19.758 14.2278 19.8302 15.5785 19.9021 16.9239C19.9177 17.2156 19.9333 17.5071 19.9507 17.798C15.5539 18.4395 11.1264 18.3797 6.69768 18.3199H6.69763C4.50961 18.2903 2.3213 18.2607 0.136261 18.3158V21.5518C2.5534 21.5062 4.97207 21.533 7.39052 21.5598H7.39061C11.1923 21.6019 14.9935 21.6439 18.7874 21.4048C20.8404 21.3855 22.9905 19.9288 22.8832 17.6811C22.8892 17.271 22.9119 16.8323 22.9353 16.3782C23.0644 13.8769 23.2176 10.9074 20.7522 9.67485C18.0725 8.78789 15.2456 8.90884 12.4244 9.02955C9.43081 9.15764 6.44363 9.28545 3.64557 8.20861C3.45015 7.06028 3.35488 5.89328 3.25972 4.72773C3.23579 4.43462 3.21187 4.14161 3.18636 3.849C7.38271 3.20733 11.617 3.27309 15.8504 3.33884C18.0665 3.37326 20.2823 3.40767 22.4923 3.34062C22.5017 2.51922 22.5118 0.877323 22.5118 0.0563724C20.1872 0.0970114 17.8584 0.0675869 15.5292 0.0381568C11.707 -0.0101371 7.88364 -0.0584462 4.07532 0.202797ZM59.4261 0.100698C57.0753 0.116823 54.7242 0.13295 52.3748 0.105107V3.34062C54.6406 3.3958 56.9096 3.36834 59.1792 3.34086C62.5397 3.30019 65.9016 3.25949 69.2566 3.48704C72.0522 3.44794 72.199 8.55086 69.5009 8.76562C66.0177 9.06335 62.5235 9.01662 59.0296 8.96989C56.7875 8.93991 54.5455 8.90993 52.3066 8.97097V21.5422C52.8881 21.5422 53.4697 21.5446 54.0513 21.5471C54.6329 21.5495 55.2145 21.5519 55.7961 21.5519C55.8011 20.0169 55.8011 18.4823 55.8011 16.9466C55.8011 15.4108 55.8011 13.8737 55.8062 12.3339C57.7189 12.2402 59.6464 12.2899 61.5749 12.3396C64.8791 12.4248 68.1862 12.5101 71.4269 11.8743C74.9456 10.9362 74.6038 6.63461 74.1637 3.8294C74.0368 1.54166 71.7591 0.105107 69.6183 0.163809C66.2257 0.0540557 62.8263 0.0773743 59.4261 0.100698ZM76.4314 0.105107C78.6525 0.116693 80.8734 0.106561 83.0936 0.0964317C86.434 0.0811923 89.7726 0.0659605 93.1076 0.124711C95.0733 0.0855022 97.6249 0.750281 98.084 2.97899C98.6811 6.06818 99.2277 11.0336 95.2194 11.9624C92.0394 12.4777 88.8169 12.4074 85.5931 12.3372C83.6839 12.2956 81.7741 12.254 79.8726 12.334C79.8663 14.3779 79.8684 16.422 79.8705 18.4663V18.4664V18.4665V18.4667V18.4668V18.4725C79.8715 19.4957 79.8726 20.519 79.8726 21.5423C78.7354 21.5423 77.5983 21.5516 76.4612 21.5609L76.4604 21.5609L76.383 21.5616C76.383 17.3584 76.383 13.1554 76.3926 8.96156C78.5991 8.92258 80.8088 8.94406 83.019 8.96554H83.0191C86.3608 8.99802 89.7038 9.03051 93.0397 8.85412C96.0508 9.17632 96.3931 3.75131 93.5283 3.52636C90.1043 3.24918 86.6661 3.29546 83.2287 3.34174C80.9645 3.37222 78.7007 3.4027 76.4416 3.34073V3.28727V3.28215C76.4414 2.46194 76.4412 0.897133 76.4314 0.105107ZM104.057 0.0461826H100.996L100.996 21.5517H104.057C104.067 18.5703 104.057 15.5892 104.047 12.607C104.562 12.6035 105.077 12.5998 105.592 12.5961C110.717 12.5595 115.842 12.5228 120.958 12.6565C120.954 13.6482 120.945 14.639 120.935 15.6292V15.6298V15.6304V15.631V15.6316C120.915 17.6069 120.896 19.5797 120.929 21.5517C121.7 21.5517 123.265 21.5517 124.046 21.542C124.046 17.4364 124.046 13.3211 124.037 9.20567C121.689 9.19527 119.34 9.20061 116.993 9.20595C112.665 9.2158 108.339 9.22564 104.017 9.13689C104.023 8.27392 104.031 7.41091 104.04 6.54788V6.54766V6.54744V6.54722V6.54701C104.062 4.38017 104.084 2.21318 104.057 0.0461826ZM128.015 0.0461826H131.124V21.5518H128.015C128.006 14.3863 128.006 7.21144 128.015 0.0461826ZM141.977 0.0996647C139.753 0.127928 137.529 0.156194 135.307 0.12449C135.327 1.19985 135.347 2.27467 135.367 3.35036C137.549 3.39587 139.736 3.36794 141.924 3.34C145.381 3.29586 148.84 3.25168 152.288 3.49701C155.424 3.61441 154.966 9.45045 151.691 8.87328C148.463 9.02367 145.227 8.99634 141.993 8.96902C139.753 8.95011 137.514 8.9312 135.279 8.9713C135.269 13.1647 135.269 17.3584 135.269 21.552H138.769C138.769 20.7938 138.768 20.0356 138.767 19.2774C138.766 16.9856 138.764 14.6939 138.778 12.403C142.15 12.3923 145.533 12.3923 148.915 12.3923C150.567 15.4422 152.212 18.4954 153.851 21.5518H157.586L157.225 20.8773C155.732 18.0805 154.236 15.2781 152.698 12.5C152.978 12.3787 153.278 12.2623 153.585 12.1431L153.585 12.143C155.208 11.5128 157.035 10.8033 157.224 8.86342C157.605 5.8234 157.859 0.740092 153.754 0.280661C149.834 -0.000202209 145.905 0.0497275 141.977 0.0996647ZM160.675 0.0562617C165.51 0.0412122 170.346 0.0430778 175.182 0.0449434C176.788 0.045563 178.394 0.0461826 180 0.0461826V3.28169C178.401 3.28169 176.802 3.28229 175.203 3.2829C170.366 3.28472 165.527 3.28654 160.694 3.27172C160.689 2.87426 160.687 2.27717 160.684 1.67848L160.684 1.67164V1.66971C160.682 1.06428 160.679 0.4582 160.675 0.0562617ZM173.566 9.14473C169.275 9.14249 164.982 9.14025 160.694 9.14697C160.684 13.2362 160.684 17.3248 160.684 21.4047V21.5421C165.525 21.5566 170.359 21.5548 175.197 21.553C176.797 21.5524 178.398 21.5518 180 21.5518V18.2479C178.201 18.2479 176.403 18.2489 174.604 18.25C171.007 18.2521 167.409 18.2542 163.812 18.2479C163.802 16.3128 163.812 14.3865 163.832 12.4506H180V9.14697C177.856 9.14697 175.711 9.14585 173.566 9.14473Z" fill="#333333"/>
<path d="M35.6787 0.114506C36.5392 0.10498 38.2594 0.10498 39.1195 0.10498C43.0591 7.25075 46.9983 14.3959 50.9279 21.5518C50.0285 21.5518 48.2397 21.5518 47.3501 21.5421C45.6784 18.4433 43.9875 15.3544 42.2964 12.2653H32.4528C30.7908 15.3639 29.1193 18.4622 27.4578 21.5518H23.9581C26.2358 17.3685 28.5327 13.2036 30.8007 9.02944C34.0365 9.02002 37.262 9.02944 40.4878 9.02002C38.8851 6.04834 37.282 3.07666 35.6787 0.114506Z" fill="#333333"/>
</svg>
