<svg width="160" height="32" viewBox="0 0 160 32" fill="none" xmlns="http://www.w3.org/2000/svg">
<path fill-rule="evenodd" clip-rule="evenodd" d="M74.0127 0V8.42204H14.8204C14.8204 8.42204 18.2428 2.76767 19.0761 1.66655C19.8796 0.535677 20.9509 0.0595197 22.0818 0.0595197H37.051V7.73756C37.051 7.73756 37.795 4.79134 39.1342 3.39262L39.2276 3.2947C40.4677 1.99307 42.1454 0.232202 45.8897 0H74.0127ZM156.329 7.58876C154.364 7.58876 152.787 5.98173 152.787 4.01758C152.787 2.05343 154.364 0.446398 156.329 0.446398C157.251 0.446398 158.114 0.803516 158.799 1.48799C159.483 2.17247 159.84 3.06526 159.84 4.01758C159.84 4.96989 159.453 5.86269 158.799 6.54717C158.144 7.23164 157.281 7.58876 156.329 7.58876ZM156.299 0.714236C154.513 0.714236 153.055 2.20223 153.055 4.01758C153.055 5.83293 154.513 7.29116 156.299 7.29116C157.162 7.29116 157.965 6.93405 158.59 6.30909C159.215 5.68413 159.543 4.85086 159.543 3.98782C159.543 3.12478 159.215 2.29151 158.59 1.66655C157.965 1.07135 157.162 0.714236 156.299 0.714236ZM154.989 6.13053H155.495V4.46398H156.626C156.805 4.46398 156.953 4.46398 157.072 4.5235C157.221 4.61278 157.311 4.79134 157.34 5.02942L157.4 5.68413V5.98173C157.411 6.00447 157.418 6.02286 157.424 6.03857C157.434 6.06398 157.441 6.08238 157.459 6.10077H158.084V6.01149C157.995 5.98173 157.965 5.89245 157.936 5.77341C157.906 5.71389 157.906 5.59485 157.906 5.44605L157.876 4.94014C157.876 4.70206 157.816 4.55326 157.757 4.46398C157.668 4.3747 157.549 4.28542 157.4 4.2259C157.578 4.13662 157.697 4.01758 157.787 3.86878C157.876 3.71998 157.906 3.54142 157.906 3.30334C157.906 2.85695 157.727 2.55935 157.4 2.38079C157.221 2.29151 156.983 2.26175 156.715 2.26175H155.019L154.989 6.13053ZM155.465 2.67839V4.01758H156.596C156.834 4.01758 157.013 3.95806 157.132 3.86878C157.281 3.7795 157.34 3.60094 157.34 3.3331C157.34 3.06526 157.251 2.85695 157.072 2.76767C156.983 2.70815 156.834 2.67839 156.656 2.67839H155.465ZM14.4633 8.92796L0 31.6645H9.88027L23.8079 9.93979L14.4633 8.92796ZM150.496 8.42204V0H120.408C116.665 0.233941 114.962 2.01954 113.718 3.32387L113.653 3.39262C112.314 4.79134 111.57 7.73756 111.57 7.73756V8.42204H150.496ZM75.471 0.0297599H83.893V8.42204H75.471V0.0297599ZM111.48 0.0297599H103.088V8.42204H111.48V0.0297599ZM103.207 10.9516L111.48 11.4575L111.54 23.1532C111.54 31.0693 103.326 31.724 103.326 31.724H84.1311C84.0121 31.6942 83.3573 31.6645 83.3573 31.6645C83.3573 31.6645 76.8995 31.099 75.5603 23.9567V22.4678C75.5918 21.8687 75.5781 21.3761 75.5603 21.0613V9.047L83.893 9.64219V20.7129C83.893 23.2722 86.3036 23.4805 86.3036 23.4805H100.469C103.177 23.4805 103.207 20.6831 103.207 20.6831V10.9516ZM75.5603 21.0613C75.5466 20.8199 75.5305 20.6831 75.5305 20.6831C75.3222 19.4332 72.9414 13.8979 67.8227 13.4217C64.7574 13.1241 37.4677 10.9516 37.4677 10.9516C38.0033 13.6895 39.2235 15.0882 40.0568 15.862C41.9614 17.6774 44.9671 18.213 44.9671 18.213L66.0073 19.9689C66.6621 19.9986 67.8822 20.1772 67.8525 21.7842C67.8525 21.9925 67.6739 23.3912 66.1264 23.3912H36.6939V10.8921L28.5099 10.2969C28.4802 10.2969 28.4802 31.6645 28.4802 31.6645H67.8227C74.6675 30.2955 75.3817 24.046 75.3817 24.046C75.4826 23.4772 75.5355 22.9395 75.5603 22.4678V21.0613ZM141.657 31.724H111.54L111.629 23.302H140.853C141.538 23.302 142.252 22.9151 142.252 22.9151C142.55 22.6472 142.788 22.1413 142.788 21.6652C142.788 20.0595 141.451 19.9987 140.796 19.9689L140.794 19.9689C140.794 19.9689 120.26 18.2428 119.545 18.1833C119.545 18.1833 116.718 17.7666 114.814 15.9215C114.759 15.871 114.704 15.8202 114.647 15.7684C113.838 15.0268 112.827 14.1002 112.076 11.4575C112.076 11.4575 139.544 13.0646 142.579 13.3622C147.728 13.8681 150.138 18.9868 150.347 20.6831C150.347 20.6831 150.555 22.2306 150.287 24.1055C150.287 24.1055 149.216 31.2776 141.657 31.724Z" fill="#333333"/>
</svg>
