<svg width="180" height="34" viewBox="0 0 180 34" fill="none" xmlns="http://www.w3.org/2000/svg">
<path fill-rule="evenodd" clip-rule="evenodd" d="M58.335 28.0238V6.23584H69.3674C74.7175 6.23584 80.1968 7.39811 80.1968 15.9952V28.0238H74.1825V18.08C74.1825 15.0359 73.7951 13.3571 72.8173 12.3239C72.0609 11.5122 70.954 11.1248 69.3674 11.1248L64.5338 11.1063V28.0238H58.335ZM106.671 6.27274V28.0423H112.814V6.27274H106.671ZM179.82 26.7693C179.82 25.5517 178.879 24.8507 177.828 24.8507C176.776 24.8507 175.835 25.5517 175.835 26.7693C175.835 27.9869 176.776 28.688 177.828 28.688C178.879 28.688 179.82 27.9869 179.82 26.7693ZM177.717 26.9354H177.496V27.8025H177.034V25.7362H177.828C178.381 25.7362 178.713 25.8838 178.713 26.3635V26.4372C178.695 26.714 178.473 26.9169 178.197 26.8985L178.75 27.8025H178.215L177.717 26.9354ZM177.496 26.0867V26.5848H177.883C178.086 26.5848 178.215 26.511 178.215 26.3081C178.215 26.1052 177.975 26.0867 177.809 26.0867H177.496ZM177.883 28.2452C178.658 28.2083 179.267 27.5442 179.23 26.7693C179.23 26.7509 179.23 26.7324 179.248 26.714C179.211 25.9022 178.529 25.2565 177.717 25.2934C176.905 25.3303 176.26 26.0129 176.296 26.8247C176.333 27.6364 177.016 28.2821 177.828 28.2452H177.883ZM116.578 6.27274V28.0423H126.54C131.853 28.0423 133.588 27.1567 135.451 25.1827C136.779 23.7991 137.628 20.7366 137.628 17.3973C137.628 14.3349 136.908 11.6044 135.635 9.90715C133.385 6.8631 130.101 6.27274 125.193 6.27274H116.578ZM125.304 10.9956H122.666V23.3747H125.304C129.141 23.3747 131.614 21.6406 131.614 17.176C131.614 12.7114 129.141 10.9956 125.304 10.9956ZM97.8154 6.27274L92.6866 23.5223L87.7793 6.27274H81.1377L88.1482 28.0423H97.0036L104.088 6.27274H97.8154ZM146.649 28.0423H140.506V6.27274H146.649V28.0423ZM157.737 6.27274L149.158 28.0238H155.21L156.575 24.168H166.722L168.013 28.0054H174.599L165.947 6.27274H157.737ZM165.449 20.4229L161.722 10.2392L157.885 20.4229H165.449Z" fill="#333333"/>
<path fill-rule="evenodd" clip-rule="evenodd" d="M18.6886 4.4646V0H50.1253V33.1524H18.7255V29.2598C19.3897 29.3335 20.0538 29.3704 20.7549 29.3704C28.0237 29.3704 40.8456 25.6622 46.3433 21.05C45.8979 20.6046 44.5135 19.8425 43.1963 19.1173L43.1963 19.1173L43.1961 19.1172C42.1131 18.521 41.0755 17.9497 40.6426 17.6001C34.8497 22.5813 28.8723 26.8061 20.6073 26.8061C19.98 26.8061 19.3343 26.7507 18.7071 26.6769V23.9096C19.4635 24.0387 20.2199 24.1125 20.9947 24.1125C29.8686 24.1125 38.3919 13.7443 38.3919 13.7443C38.3919 13.7443 30.957 4.02183 19.5741 4.40926L18.6886 4.4646ZM18.6886 6.90128V9.88854C12.6005 10.5527 8.92921 14.6114 8.92921 14.6114C8.92921 14.6114 11.0508 22.5628 18.6886 23.9281V21.5666C14.39 20.1092 12.9695 15.0726 12.9695 15.0726C12.9695 15.0726 15.4785 12.0839 18.6702 12.4714H18.6886V9.88854C19.2421 9.8332 19.7955 9.7963 20.349 9.81475C25.5884 9.81475 28.7063 13.8919 28.7063 13.8919L24.4446 17.471C24.3337 17.2847 24.2271 17.1045 24.1239 16.9302L24.1233 16.9291C22.4601 14.1188 21.712 12.8546 18.7071 12.4898V21.5666C19.4819 21.8249 20.2936 21.954 21.1238 21.954C27.3411 21.954 33.134 13.9104 33.134 13.9104C33.134 13.9104 27.7654 6.60466 19.5741 6.86294C19.2851 6.86294 18.9961 6.88063 18.7071 6.89869V4.4646C8.67092 5.27635 0 13.7628 0 13.7628C0 13.7628 4.90737 27.9683 18.6886 29.2598V26.6769C8.57868 25.4224 5.12876 14.2794 5.12876 14.2794C5.12876 14.2794 9.64257 7.60996 18.6886 6.90128ZM18.6886 6.90128V6.89984C18.6948 6.89946 18.7009 6.89907 18.7071 6.89869V6.89984C18.7009 6.90032 18.6948 6.9008 18.6886 6.90128Z" fill="#333333"/>
</svg>
