<svg width="180" height="23" viewBox="0 0 180 23" fill="none" xmlns="http://www.w3.org/2000/svg">
<path fill-rule="evenodd" clip-rule="evenodd" d="M0 11.2885V0L10.25 0.0769231C19.3654 0.153846 20.5962 0.211538 21.5385 0.5C24.0962 1.32692 25 2.57692 25.1538 5.48077C25.2692 7.88462 24.9231 9.15385 23.8269 10.1346C23.4038 10.5192 23.0769 10.8654 23.1154 10.8846C23.1232 10.8925 23.1887 10.9323 23.2896 10.9937L23.2896 10.9937L23.2896 10.9938C23.436 11.0829 23.6569 11.2174 23.8846 11.3654C25.0962 12.0962 25.3846 12.9808 25.3846 16.1154C25.3846 18.6154 25.3462 18.8846 24.9038 19.7885C24.3654 20.8462 23.5385 21.5385 22.1154 22.0962C21.3269 22.4038 20.25 22.4423 10.6346 22.5L0 22.5577V11.2885ZM19.9038 18.8077C20.25 18.6538 20.6346 18.3654 20.75 18.1538C20.8654 17.9231 20.9615 16.8654 20.9615 15.75C20.9615 13.8654 20.9423 13.7308 20.4615 13.2885L19.9615 12.8269L12.1923 12.7692L4.42308 12.7115V15.9038V19.0769H11.8269C17.7885 19.0769 19.3654 19.0192 19.9038 18.8077ZM20.7692 6.32692C20.7692 8.30769 20.5577 8.76923 19.4615 9.07692C19.0385 9.19231 15.9231 9.26923 11.5962 9.26923H4.42308V6.48077V3.69231H12.1154H19.8269L20.2885 4.17308C20.7308 4.59615 20.7692 4.78846 20.7692 6.32692Z" fill="#333333"/>
<path d="M30.1923 11.2886V0.0385742H32.3077H34.4231V11.2886V22.5386H32.3077H30.1923V11.2886Z" fill="#333333"/>
<path d="M49.6154 13.1155V3.69242H43.8462H38.0769V1.8655V0.0385742H51.7308H65.3846V1.8655V3.69242H59.7115H54.0385V13.1155V22.5386H51.8269H49.6154V13.1155Z" fill="#333333"/>
<path d="M68.8846 11.346L68.9423 0.134428L70.8846 0.0767353L72.8462 0.019043L79.4231 9.07674C83.0385 14.0383 86.0577 18.1152 86.1154 18.096C86.1923 18.096 89.1731 14.0383 92.75 9.0575L99.2692 0.0382737H101.077H102.885V11.2883V22.5383H100.865H98.8462L98.8077 14.9421L98.75 7.34597L93.2692 14.9229L87.7885 22.519H85.9423L84.0962 22.5383L78.5385 14.9229L72.9808 7.28827L72.9231 14.9229L72.8846 22.5383H70.8654H68.8462L68.8846 11.346Z" fill="#333333"/>
<path d="M105.904 21.9809C106.096 21.6732 109.462 16.6155 113.365 10.7309L120.481 0.057805L121.942 0.0385742C123.096 0.0385742 123.462 0.115497 123.692 0.384728C124.038 0.769343 138.269 22.327 138.269 22.4617C138.269 22.5001 137.173 22.5386 135.827 22.5193H133.365L127.769 13.7309C124.692 8.90396 122.096 4.94242 122.019 4.94242C121.962 4.94242 119.327 8.90396 116.192 13.7309L110.481 22.5193L108.019 22.5386H105.538L105.904 21.9809Z" fill="#333333"/>
<path d="M141.154 11.2886V0.0385742H143.365H145.577V11.2886V22.5386H143.365H141.154V11.2886Z" fill="#333333"/>
<path d="M150.423 11.346L150.481 0.134428L152.231 0.0767353L154 0.019043L162.423 6.3075C167.077 9.76904 172 13.4614 173.404 14.4998C174.788 15.5383 175.981 16.3844 176.038 16.3844C176.096 16.3844 176.173 12.7306 176.192 8.26904L176.25 0.134428L178.135 0.0767353L180 0.019043V11.2883V22.5383H178.904H177.788L166.058 13.9614L154.327 5.40366L154.269 13.9614L154.231 22.5383H152.308H150.385L150.423 11.346Z" fill="#333333"/>
</svg>
