<svg width="170" height="30" viewBox="0 0 170 30" fill="none" xmlns="http://www.w3.org/2000/svg">
<path fill-rule="evenodd" clip-rule="evenodd" d="M0.514221 28.4814C0.25399 28.9675 0.089148 29.4162 0.147906 29.4785C0.288776 29.6278 9.72844 29.3922 9.89004 29.2353C9.95869 29.1687 11.8175 25.3721 14.0206 20.7984C16.2238 16.2247 18.4794 11.5554 19.0331 10.4221C20.4282 7.56648 21.3133 6.82157 23.1083 6.99255L23.6913 7.04808L23.735 18.3052L23.7786 29.5623L39.5292 29.514L55.2797 29.4657L56.4859 29.0244C59.6764 27.8571 61.91 25.3425 62.5806 22.163C62.898 20.6576 62.8968 19.8897 62.5746 18.5231C61.8829 15.5886 59.2691 13.2207 55.7017 12.2971C54.799 12.0634 53.4674 11.9982 48.3167 11.9355L48.0193 11.9319C42.8551 11.8693 41.6413 11.8546 41.0612 11.2408C40.8829 11.0523 40.7645 10.8071 40.6097 10.4867L40.5807 10.4266C40.1245 9.48442 40.2005 8.58465 40.8145 7.65689L40.8508 7.60169L40.882 7.55408C41.0002 7.37341 41.0991 7.22238 41.2231 7.09613C41.8554 6.4527 43.1426 6.45283 50.99 6.45362L51.8663 6.45368H61.3087V3.3013V0.148926L50.8217 0.214726C41.6092 0.27253 40.2016 0.315798 39.2397 0.570743C35.9232 1.44983 33.6565 3.57406 32.8582 6.55131C32.4643 8.02065 32.4964 10.3583 32.9295 11.7307C33.6341 13.9635 35.5678 16.2188 37.5883 17.1643C39.5313 18.0735 40.4037 18.1658 47.0922 18.169C52.8942 18.1718 53.2016 18.1879 53.8572 18.5224C55.1871 19.2008 55.5357 20.9355 54.5723 22.0805C54.5384 22.1208 54.5062 22.1596 54.4751 22.1971L54.4751 22.1972L54.475 22.1973L54.475 22.1973L54.4749 22.1974C54.3513 22.3465 54.2458 22.4737 54.1239 22.5826C53.4154 23.2154 52.1528 23.228 43.5555 23.3135H43.5554H43.5554H43.5554H43.5553H43.5553L42.3989 23.3251L31.8957 23.4309L32.0211 11.7918L32.1465 0.152721L24.9428 0.2038L17.7392 0.254876L16.6145 0.808782C15.2915 1.46034 13.7521 3.0154 13.0314 4.4282C12.297 5.86772 1.04439 27.491 0.514221 28.4814ZM63.8561 0.154294V14.7675V29.3808H67.3377H70.8192V23.8369V18.293L72.1478 18.4038C74.8885 18.6323 76.536 19.2856 77.9634 20.7101C79.5251 22.2684 80.2787 24.2931 80.4478 27.3852L80.5476 29.2109H85.2176H89.8877L89.7966 26.8758C89.6846 24.0036 89.3266 22.2374 88.4956 20.4583C87.7071 18.7702 86.3106 17.2296 84.4987 16.0491L83.1953 15.1999L84.0127 14.9813C86.9386 14.1986 88.5637 13.0527 89.5292 11.0915C90.0069 10.1211 90.0909 9.75199 90.152 8.35625C90.2423 6.29156 89.9909 5.18971 89.1385 3.91312C88.2848 2.63469 86.5836 1.45916 84.5713 0.757094L83.1319 0.254876L73.494 0.204586L63.8561 0.154294ZM79.7353 11.124C81.0104 10.4864 81.3637 8.83095 80.425 7.89223C79.7783 7.24556 78.9531 7.13495 74.7677 7.13395L70.8192 7.133V9.35622V11.5794L74.9376 11.5216C78.6469 11.4694 79.1234 11.4299 79.7353 11.124ZM92.9863 25.2835C95.2523 27.4032 98.4239 28.7998 101.895 29.2065C109.541 30.1021 117.017 26.0028 118.209 20.2614C118.463 19.0363 118.338 16.8177 117.952 15.7094C116.656 11.984 112.72 8.99369 107.757 7.96408C105.859 7.57025 102.643 7.5405 100.752 7.89927C90.4452 9.85439 86.3332 19.0599 92.9863 25.2835ZM105.713 24.3652C108.403 23.6646 110.1 21.9106 110.572 19.3418C110.74 18.4267 110.728 18.0841 110.491 17.153C110.003 15.2351 108.813 13.8531 106.859 12.9374C105.992 12.5306 105.692 12.4826 104.021 12.4826C102.325 12.4826 102.065 12.5258 101.198 12.9519C99.7924 13.6423 98.766 14.6263 98.1536 15.8702C96.4167 19.3984 98.4473 23.3839 102.493 24.3862C103.663 24.6764 104.541 24.6706 105.713 24.3652ZM101.764 14.4159C97.9205 16.3857 98.5167 21.6897 102.714 22.8687C104.861 23.472 107.387 22.4436 108.435 20.5393C109.094 19.3421 109.15 17.6428 108.566 16.5368C108.06 15.5773 106.801 14.5121 105.769 14.1692C104.622 13.7883 102.765 13.9026 101.764 14.4159ZM134.14 29.1935C127.805 28.7057 122.68 26.326 120.358 22.795C119.26 21.1253 118.966 20.2196 118.966 18.5116C118.966 16.8096 119.261 15.8977 120.342 14.2526C121.999 11.731 124.866 9.80354 128.556 8.72973C131.241 7.94866 132.775 7.77682 137.86 7.68815L142.657 7.60448V10.1441V12.6837L139.388 12.7951C137.581 12.8566 135.59 13.02 134.935 13.1606C132.474 13.6888 130.161 15.1774 129.419 16.7109C128.95 17.6807 128.952 19.1771 129.424 20.1526C130.146 21.6436 132.322 23.109 134.69 23.6991C135.414 23.8794 136.933 24.0025 139.218 24.0662L142.657 24.162V26.7714V29.3808L139.303 29.3568C137.458 29.3436 135.135 29.2702 134.14 29.1935ZM143.676 0.169961V14.7754V29.3808H148.177H152.677V24.116V18.8513H153.673C155.07 18.8513 156.345 19.1209 157.415 19.6423C159.83 20.8202 160.976 23.1766 161.26 27.5551L161.379 29.3808H165.629H169.878L169.783 26.7059C169.608 21.7534 168.483 19.2004 165.421 16.8059L164.25 15.8904L165.103 15.4239C167.918 13.8844 169.54 11.6722 169.562 9.34079C169.568 8.63812 169.615 8.22453 169.433 7.98228C169.143 7.59513 168.269 7.64562 165.717 7.65312L162.103 7.66376L161.51 8.88439C160.145 11.6943 157.725 13.0771 154.17 13.0771H152.677V6.62351V0.169961H148.177H143.676Z" fill="#333333"/>
</svg>
