<svg width="180" height="25" viewBox="0 0 180 25" fill="none" xmlns="http://www.w3.org/2000/svg">
<path fill-rule="evenodd" clip-rule="evenodd" d="M112.393 15.1529H119.065C118.958 15.6388 118.866 16.1266 118.776 16.6122C118.433 18.4436 118.097 20.2426 116.898 21.7793C116.133 22.7608 115.182 23.519 114.011 23.9893C111.171 25.1302 108.24 25.261 105.286 24.6035C103.4 24.1839 101.894 23.1696 101.521 21.1577C101.345 20.2119 101.354 19.1785 101.535 18.2328C102.038 15.6163 102.591 13.0096 103.145 10.4028C103.385 9.27356 103.624 8.14437 103.86 7.01438C104.652 3.2147 106.999 0.973078 110.848 0.270451C112.975 -0.117839 115.112 -0.0779781 117.236 0.325521C117.608 0.396151 117.977 0.506991 118.332 0.640209C120.257 1.36382 121.259 2.77431 121.096 4.7995C121.018 5.76422 120.838 6.72081 120.655 7.69196L120.654 7.69256L120.654 7.69327C120.572 8.13138 120.488 8.57246 120.414 9.01859H113.646L113.838 8.07848C113.961 7.47534 114.078 6.89775 114.196 6.32032C114.209 6.26015 114.222 6.20013 114.235 6.14011C114.253 6.05871 114.271 5.9773 114.287 5.89549C114.488 4.8336 114.305 4.30177 113.649 4.03691C112.816 3.70107 111.711 4.02677 111.249 4.79811C111.044 5.13937 110.902 5.5364 110.819 5.92608C109.873 10.3688 108.942 14.8146 108.012 19.261C107.837 20.1014 108.042 20.6587 108.592 20.9222C109.275 21.25 110.462 21.0299 110.923 20.3975C111.204 20.0118 111.395 19.5316 111.512 19.066C111.743 18.1465 111.944 17.2195 112.147 16.2808L112.147 16.2805L112.147 16.2796C112.228 15.906 112.309 15.5305 112.393 15.1529ZM12.3255 11.6867L13.8983 4.12585C13.9528 4.09347 13.9889 4.07011 14.0143 4.05365C14.0503 4.0303 14.0649 4.02084 14.0804 4.0192C16.6023 3.75836 17.2289 4.422 16.7654 6.89125C16.6164 7.68426 16.4473 8.47535 16.2405 9.25525C15.6703 11.4044 14.7333 12.0004 12.3255 11.6867ZM5.58164 11.6539H0L0.736073 15.2483H4.81912L2.92173 24.4339H9.63207L11.5869 15.2392C11.9064 15.2392 12.2184 15.2411 12.5251 15.243H12.5251H12.5252H12.5252H12.5252H12.5253H12.5253H12.5253H12.5254C13.1879 15.247 13.8261 15.2508 14.4639 15.2352C16.3354 15.1892 18.1324 14.8119 19.783 13.9137C21.2188 13.1324 22.3498 12.0479 22.7446 10.4276C23.1756 8.65892 23.5559 6.87482 23.8676 5.08215C24.1929 3.2108 23.3819 1.79436 21.5475 1.21971C20.3338 0.839633 19.0341 0.591205 17.7638 0.548722C15.5335 0.473985 13.3004 0.482153 11.0673 0.490322C10.2497 0.493312 9.43217 0.496303 8.61479 0.495225C8.46325 0.495107 8.31171 0.516429 8.15084 0.539063C8.07345 0.549952 7.9939 0.561145 7.91116 0.570401L6.95967 5.09733L5.58164 11.6539ZM48.1907 7.37201L48.3948 5.25889H41.9883L41.493 24.4529H49.0676L49.8381 22.2285L54.15 9.78113C54.2048 9.79669 54.2598 9.8119 54.3148 9.82746L53.276 24.4346H61.0854L68.3829 5.26379H62.7293C61.2854 10.0009 59.8554 14.6927 58.4255 19.3845L58.2512 19.352L59.1829 5.25522H52.0919C50.4444 10.0217 48.806 14.7616 47.1674 19.5015C47.2482 17.1109 47.4754 14.7653 47.7025 12.4198L47.7065 12.3785C47.8658 10.7357 48.0245 9.09277 48.185 7.43027L48.1886 7.3932L48.1907 7.37201ZM77.1372 11.4261C77.0811 11.6822 77.0242 11.9414 76.9695 12.2052H74.378C74.4559 11.885 74.5255 11.5702 74.5939 11.2607C74.7496 10.5566 74.8992 9.87985 75.1273 9.22997C75.3644 8.55462 76.4859 8.27105 77.101 8.67595C77.3225 8.82175 77.5483 9.20043 77.5164 9.43959C77.4281 10.0994 77.285 10.7521 77.1372 11.4261ZM73.6966 15.4762H82.6945C82.7846 15.0548 82.8731 14.6437 82.96 14.2399L82.9604 14.2378C83.1717 13.2559 83.3738 12.3167 83.5689 11.3761L83.5714 11.3642L83.5715 11.3639L83.5715 11.3638C83.6763 10.8586 83.7816 10.3505 83.8325 9.83837C84.0642 7.50741 83.1054 6.04219 80.8119 5.43064C78.0259 4.68816 75.2283 4.75651 72.5055 5.73519C70.3512 6.50967 68.8958 7.99884 68.3972 10.2422C67.7011 13.3758 67.0495 16.5197 66.43 19.669C66.0471 21.615 66.8487 23.0726 68.6645 23.9157C69.0074 24.075 69.369 24.2121 69.7364 24.3011C72.4187 24.9493 75.0924 24.89 77.7195 24.0567C79.339 23.543 80.7271 22.6205 81.3503 21.0031C81.6957 20.1067 81.9209 19.1653 82.1515 18.2016C82.2552 17.7681 82.36 17.3301 82.4773 16.8896H76.0111C75.9594 17.1274 75.9115 17.3632 75.864 17.597L75.8637 17.5985L75.8637 17.5986C75.7536 18.1405 75.6458 18.6715 75.4977 19.1914C75.3498 19.7108 75.1604 20.2465 74.8586 20.6879C74.5412 21.1519 73.9429 21.3405 73.4545 21.0519C73.1469 20.8699 72.8191 20.3465 72.863 20.0245C73.0141 18.9162 73.2332 17.817 73.4566 16.6965L73.457 16.6946L73.4574 16.6925L73.458 16.6895L73.4582 16.6884L73.4585 16.6867C73.5383 16.2864 73.6186 15.8833 73.6966 15.4762ZM33.6263 9.64851C33.6367 8.94256 33.2936 8.5749 32.6788 8.52909C31.8186 8.46476 31.2053 8.96878 30.9903 9.95812C30.7347 11.1349 30.4882 12.3134 30.2417 13.492L30.2417 13.4921L30.2417 13.4921L30.2417 13.4922L30.2417 13.4923L30.2415 13.493L30.2411 13.4952L30.2406 13.4973L30.2402 13.4994L30.2397 13.5015L30.2393 13.5037C30.1316 14.0186 30.0239 14.5336 29.9154 15.0484C29.813 15.5345 29.7097 16.0205 29.6063 16.5065L29.6061 16.5074C29.3728 17.6046 29.1394 18.7019 28.9173 19.8014C28.7141 20.8068 29.3347 21.3626 30.3433 21.1068C31.0651 20.9236 31.3706 20.4033 31.5101 19.7332C31.8459 18.1177 32.1857 16.5029 32.5256 14.8882L32.5269 14.8821C32.6569 14.2641 32.787 13.6462 32.9168 13.0282L33.6263 9.64851ZM33.5609 4.88746C33.8487 4.9334 34.1583 4.97287 34.4816 5.01407C35.2431 5.11115 36.0799 5.21781 36.8833 5.44131C39.2934 6.11194 40.3572 7.75146 39.91 10.1709C39.3163 13.3814 38.6268 16.5757 37.9195 19.764C37.5468 21.4442 36.4731 22.6691 34.9343 23.4332C31.7932 24.9932 28.5067 25.1584 25.2037 24.0727C22.9635 23.3367 22.1247 21.7114 22.5875 19.4356C22.8011 18.3852 23.0247 17.3367 23.2484 16.2882L23.2484 16.2879C23.6277 14.5099 24.007 12.7319 24.3371 10.945C25.045 7.1144 27.6645 5.74743 30.4433 5.22592C31.0785 5.10671 31.7261 5.05149 32.4463 4.99008C32.7982 4.96008 33.1673 4.9286 33.5609 4.88746ZM155.086 8.52818C155.852 8.49287 156.245 8.87539 156.202 9.73379L155.912 11.1304C155.697 12.161 155.476 13.2268 155.252 14.2924C154.873 16.1027 154.492 17.9125 154.11 19.7221C153.978 20.3492 153.698 20.8676 153.031 21.0798C151.999 21.4083 151.32 20.8533 151.517 19.8052C151.678 18.9483 151.862 18.0955 152.046 17.2428L152.046 17.242L152.046 17.2415L152.046 17.2409L152.046 17.2404C152.137 16.8223 152.227 16.4042 152.314 15.9856C152.46 15.2865 152.605 14.5872 152.75 13.8878L152.75 13.8844C153.016 12.6039 153.281 11.3234 153.553 10.0443C153.767 9.0392 154.26 8.56612 155.086 8.52818ZM150.462 24.6572C150.897 24.7374 151.333 24.8175 151.763 24.9112L151.806 24.719C153.735 24.7113 155.608 24.4243 157.341 23.5451C159.048 22.6793 160.193 21.3699 160.583 19.4667C160.877 18.0358 161.179 16.6066 161.481 15.1773L161.481 15.177L161.481 15.1767L161.481 15.1764L161.481 15.1761C161.819 13.5796 162.156 11.9832 162.482 10.3843C162.987 7.90161 161.985 6.13936 159.518 5.45334C156.559 4.63043 153.587 4.73235 150.735 5.93359C148.816 6.74163 147.556 8.1885 147.112 10.2299C146.436 13.3368 145.776 16.4475 145.155 19.5653C144.729 21.6986 145.515 23.2202 147.603 23.9706C148.519 24.2997 149.49 24.4785 150.462 24.6572ZM126.186 19.975C126.128 20.8074 126.481 21.1677 127.272 21.1529C128.127 21.1368 128.623 20.6614 128.853 19.5876C129.164 18.1321 129.464 16.6743 129.764 15.2167L129.966 14.2379C130.047 13.8451 130.13 13.4524 130.213 13.0598C130.44 11.9809 130.667 10.9019 130.863 9.81746C131.046 8.80521 130.395 8.29175 129.389 8.59682C128.759 8.78791 128.446 9.24385 128.315 9.8533C128.198 10.4012 128.08 10.9488 127.962 11.4965C127.763 12.4185 127.564 13.3405 127.37 14.2635C127.09 15.6001 126.813 16.9378 126.542 18.2541L126.541 18.2579L126.538 18.2733L126.537 18.2758C126.419 18.8469 126.302 19.4139 126.186 19.975ZM126.509 24.7149C125.062 24.7239 123.645 24.5579 122.293 24.0048C120.301 23.1896 119.438 21.6506 119.861 19.5642C120.242 17.6908 120.634 15.8197 121.026 13.9486C121.268 12.7931 121.51 11.6376 121.75 10.4816C122.27 7.97234 123.857 6.38771 126.255 5.60939C128.757 4.79732 131.328 4.71795 133.887 5.35362C136.552 6.01568 137.673 7.65608 137.179 10.2956C136.584 13.4764 135.894 16.6409 135.191 19.8007C134.761 21.7369 133.409 22.9398 131.648 23.7364C130.02 24.4732 128.286 24.7156 126.509 24.7149ZM93.3791 15.5879H99.7827C99.8635 15.2041 99.9447 14.8261 100.025 14.452C100.205 13.6147 100.38 12.7965 100.54 11.9751C100.605 11.64 100.674 11.305 100.744 10.9698L100.744 10.9691C100.956 9.94415 101.169 8.91802 101.258 7.88225C101.394 6.30567 100.576 5.35269 98.994 5.08853C96.6739 4.70111 94.6227 5.2186 93.0318 7.03959C92.9443 7.13979 92.8805 7.25997 92.8167 7.38014C92.7869 7.4363 92.757 7.49246 92.7248 7.54659L92.5134 7.39012L92.939 5.26947H86.5402L82.5284 24.4425H88.909C88.9237 24.3812 88.9383 24.3216 88.9526 24.2634C88.9632 24.2199 88.9738 24.1772 88.9842 24.1351L88.9847 24.133C89.0345 23.9315 89.0807 23.7445 89.1204 23.5561C89.346 22.485 89.5709 21.4137 89.7959 20.3424L89.7969 20.3374L89.797 20.3369C90.4392 17.2782 91.0814 14.2194 91.7391 11.1639C91.8336 10.7255 92.0259 10.2765 92.2862 9.91094C92.6458 9.40569 93.3699 9.27597 93.8666 9.51181C94.4343 9.78122 94.42 10.2763 94.3715 10.7779C94.3586 10.911 94.3266 11.0422 94.2945 11.1735C94.2784 11.2395 94.2623 11.3055 94.2486 11.3718C94.0668 12.2526 93.8852 13.1335 93.7 14.0316L93.6809 14.1241L93.3791 15.5879ZM178.476 15.5858H172.087C172.189 15.0961 172.289 14.6129 172.388 14.1341L172.392 14.115C172.609 13.0708 172.822 12.0474 173.032 11.0237C173.216 10.1231 173.062 9.6901 172.493 9.47489C171.862 9.2366 171.064 9.55478 170.74 10.26C170.526 10.727 170.408 11.2448 170.301 11.751C169.756 14.3349 169.216 16.9199 168.676 19.5048L168.674 19.5169C168.381 20.9193 168.088 22.3216 167.795 23.7238C167.763 23.8743 167.719 24.0223 167.671 24.1858L167.671 24.1861C167.647 24.2671 167.622 24.3519 167.596 24.4428H161.237L165.247 5.26227H171.617L171.215 7.6018C171.309 7.49939 171.387 7.41534 171.453 7.34294C171.575 7.212 171.66 7.11914 171.744 7.02469C173.324 5.24986 175.337 4.70824 177.633 5.07398C179.276 5.33587 180.162 6.34549 179.975 7.98379C179.834 9.21887 179.573 10.4408 179.311 11.6624C179.209 12.1389 179.107 12.6153 179.013 13.0924C178.902 13.652 178.779 14.2092 178.653 14.7815L178.652 14.7824C178.594 15.0464 178.535 15.3136 178.476 15.5858ZM147.392 0.547201H140.981L135.98 24.4238H142.396L147.392 0.547201Z" fill="#333333"/>
</svg>
