<svg width="150" height="36" viewBox="0 0 150 36" fill="none" xmlns="http://www.w3.org/2000/svg">
<path fill-rule="evenodd" clip-rule="evenodd" d="M26.91 33.3979H35.229L21.4552 2.39551H12.5001L0 33.3979H8.18194L10.5006 27.2595H24.3651L26.91 33.3979ZM12.546 21.8494L17.0916 9.80363L22.0922 21.8494H12.546Z" fill="#333333"/>
<path d="M65.448 2.39551H72.1755V33.3979H64.4469V14.0329L56.0829 23.7598H54.9015L46.5381 14.0329V33.3975H38.8095V2.39551H45.537L55.4918 13.896L65.448 2.39551Z" fill="#333333"/>
<path fill-rule="evenodd" clip-rule="evenodd" d="M108.894 17.9409C108.894 9.44045 103.076 2.39551 91.7578 2.39551H78.0744V33.3979H90.8936C103.258 33.3979 108.894 26.8504 108.894 17.9409ZM90.8473 27.7157H85.8024H85.8022V8.07695H90.7564C98.0749 8.07695 100.939 12.576 100.939 17.895C100.939 22.4415 98.6205 27.7157 90.8473 27.7157Z" fill="#333333"/>
<path d="M124.269 9.74644L114.524 0H150V35.4769L140.255 25.7316V9.74644H124.269Z" fill="#333333"/>
<path d="M124.258 11.6992L114.225 21.7316V35.7752H128.267L138.299 25.7428H124.258V11.6992Z" fill="#333333"/>
</svg>
