<svg width="160" height="34" viewBox="0 0 160 34" fill="none" xmlns="http://www.w3.org/2000/svg">
<path fill-rule="evenodd" clip-rule="evenodd" d="M1.42786 6.61302C7.46071 2.09562 13.1748 0.00435679 18.5211 0C18.8763 0.000677579 19.2314 0.0104109 19.5861 0.0291905C25.237 0.319933 30.267 2.91702 34.7672 6.6852C35.4647 7.20106 35.8186 8.06111 35.6863 8.91849C35.5539 9.77634 34.96 10.4916 34.1395 10.7724C33.3176 11.0549 32.407 10.8583 31.7748 10.262C27.7737 6.91074 23.7128 4.92579 19.338 4.70039C14.9627 4.47544 10.0591 5.98521 4.22913 10.3497C3.56385 10.8642 2.66969 10.9833 1.89404 10.656C1.11868 10.3286 0.574948 9.60991 0.478954 8.77355C0.382088 7.93676 0.747042 7.10897 1.42786 6.61302ZM84.4267 6.61302C90.4596 2.09562 96.1732 0.00435679 101.52 0C101.876 0.000638864 102.231 0.0104691 102.586 0.0294809C108.236 0.320369 113.267 2.9176 117.766 6.68549C118.464 7.20147 118.818 8.06138 118.686 8.91878C118.554 9.77678 117.96 10.492 117.139 10.7729C116.317 11.0553 115.406 10.8587 114.774 10.2624C110.772 6.91117 106.712 4.92622 102.337 4.70083C97.9619 4.47544 93.0587 5.98565 87.2296 10.3497C86.5628 10.8642 85.6704 10.9832 84.8939 10.656C84.1178 10.3286 83.5748 9.61035 83.478 8.77355C83.3811 7.93676 83.7459 7.10897 84.4267 6.61302ZM74.6023 0.934386C73.7514 0.970402 72.9813 1.47042 72.6037 2.23314L59.7715 26.0991L46.9418 2.23343C46.5381 1.44597 45.7242 0.954228 44.8393 0.963286C44.0137 0.97363 43.2543 1.41717 42.8397 2.1312C42.4274 2.8444 42.4236 3.71794 42.8264 4.43768L57.7144 32.1281C58.1212 32.8858 58.9121 33.3546 59.7724 33.3546C60.6328 33.3546 61.4248 32.8871 61.8321 32.1281L76.7197 4.43768C77.144 3.69867 77.1328 2.78739 76.6905 2.05902C76.2486 1.33042 75.4528 0.898515 74.6023 0.934386ZM140.684 2.23329C141.078 1.48918 141.842 1.01491 142.683 0.992476C143.567 0.972134 144.386 1.45246 144.8 2.23343L159.689 29.9246C160.114 30.6609 160.102 31.5744 159.66 32.3036C159.218 33.0319 158.424 33.4638 157.573 33.4264C156.72 33.3894 155.954 32.8925 155.573 32.1287L142.743 8.26192L129.912 32.128C129.531 32.8918 128.765 33.3888 127.912 33.426C127.062 33.4632 126.267 33.0313 125.825 32.3034C125.383 31.5747 125.371 30.6632 125.795 29.9239L140.684 2.23329ZM2.36196 14.3929C1.52225 14.3792 0.740708 14.8204 0.318624 15.5465C-0.106005 16.2774 -0.106005 17.1799 0.318624 17.9108C0.74079 18.6367 1.5223 19.0778 2.36196 19.0641H19.2358C20.0754 19.0784 20.857 18.6371 21.2786 17.9108C21.7031 17.1798 21.7031 16.2774 21.2786 15.5465C20.8549 14.8186 20.078 14.3816 19.2358 14.3929H2.36196ZM98.7765 15.5465C99.1985 14.8204 99.9801 14.3791 100.82 14.3929L100.82 14.3937H116.395C117.237 14.3828 118.012 14.8193 118.437 15.5476C118.62 15.8609 118.616 16.2131 118.613 16.5661C118.612 16.6209 118.612 16.6757 118.612 16.7304C118.613 17.1374 118.625 24.3611 118.612 25.0209C118.601 25.7048 118.292 26.3499 117.766 26.7874C113.266 30.5553 108.236 33.1383 102.585 33.4292C96.9343 33.7202 90.8624 31.6772 84.4261 26.8603C83.6251 26.2733 83.2758 25.2416 83.5651 24.2916C83.8549 23.3405 84.7188 22.6816 85.7105 22.6409C86.2578 22.6202 86.7953 22.7909 87.2303 23.1237C93.0588 27.4873 97.963 28.9983 102.338 28.7719C106.472 28.5592 110.329 26.7611 114.118 23.7361L113.986 19.0641H100.82C99.9802 19.0779 99.1986 18.6367 98.7765 17.9108C98.3516 17.1799 98.3516 16.2773 98.7765 15.5465ZM142.626 19.9107C140.9 19.9107 139.487 21.3237 139.487 23.0492C139.487 24.775 140.9 26.1728 142.626 26.1728C144.351 26.1728 145.749 24.7746 145.749 23.0492C145.748 21.3231 144.351 19.9107 142.626 19.9107ZM0.565654 24.2895C0.856397 23.3399 1.72035 22.68 2.71253 22.6402C3.2584 22.6175 3.7948 22.7879 4.22739 23.1216C10.0566 27.4854 14.9611 28.9959 19.336 28.7703C23.7108 28.5448 27.7709 26.5461 31.7727 23.1937C32.7644 22.3675 34.2452 22.4941 35.072 23.4858C35.8992 24.478 35.7578 25.9598 34.7664 26.7861C30.2668 30.5531 25.2364 33.1369 19.5858 33.4276C13.9359 33.7181 7.86269 31.6765 1.42801 26.8587C0.625923 26.2722 0.277234 25.2399 0.565654 24.2895Z" fill="#333333"/>
</svg>
