<svg width="119" height="23" viewBox="0 0 119 23" fill="none" xmlns="http://www.w3.org/2000/svg">
<rect width="118.889" height="22.2222" fill="white"/>
<rect width="22.2222" height="22.2222" fill="#00B67A"/>
<rect x="24.0741" width="22.2222" height="22.2222" fill="#00B67A"/>
<rect x="48.1481" width="22.2222" height="22.2222" fill="#00B67A"/>
<rect x="72.2222" width="22.2222" height="22.2222" fill="#00B67A"/>
<rect x="107.407" width="11.1111" height="22.2222" fill="#005128"/>
<rect x="96.2963" width="11.1111" height="22.2222" fill="#00B67A"/>
<path fill-rule="evenodd" clip-rule="evenodd" d="M12.9398 9.35185H18.8889L14.0972 12.8241L11.1343 14.9537L6.31945 18.4259L8.14816 12.8241L3.33334 9.35185H9.28242L11.1111 3.75L12.9398 9.35185ZM14.4907 14.1204L11.1111 14.9769L15.9028 18.4722L14.4907 14.1204Z" fill="white"/>
<path fill-rule="evenodd" clip-rule="evenodd" d="M37.0139 9.35185H42.963L38.1713 12.8241L35.2083 14.9537L30.3935 18.4259L32.2222 12.8241L27.4074 9.35185H33.3565L35.1852 3.75L37.0139 9.35185ZM38.5648 14.1204L35.1852 14.9769L39.9769 18.4722L38.5648 14.1204Z" fill="white"/>
<path fill-rule="evenodd" clip-rule="evenodd" d="M61.088 9.35185H67.037L62.2454 12.8241L59.2824 14.9537L54.4676 18.4259L56.2963 12.8241L51.4815 9.35185H57.4306L59.2593 3.75L61.088 9.35185ZM62.6389 14.1204L59.2593 14.9769L64.0509 18.4722L62.6389 14.1204Z" fill="white"/>
<path fill-rule="evenodd" clip-rule="evenodd" d="M85.162 9.35185H91.1111L86.3194 12.8241L83.3565 14.9537L78.5417 18.4259L80.3704 12.8241L75.5555 9.35185H81.5046L83.3333 3.75L85.162 9.35185ZM86.7129 14.1204L83.3333 14.9769L88.125 18.4722L86.7129 14.1204Z" fill="white"/>
<path fill-rule="evenodd" clip-rule="evenodd" d="M109.236 9.35185H115.185L110.394 12.8241L107.431 14.9537L102.616 18.4259L104.444 12.8241L99.6296 9.35185H105.579L107.407 3.75L109.236 9.35185ZM110.787 14.1204L107.407 14.9769L112.199 18.4722L110.787 14.1204Z" fill="white"/>
</svg>
